<svg width="24" height="24" viewBox="0 0 24 24" fill="none" xmlns="http://www.w3.org/2000/svg">
<path fill-rule="evenodd" clip-rule="evenodd" d="M10.1787 4.18696C11.3416 3.68855 12.658 3.68855 13.8209 4.18695C15.163 4.76214 16.1545 5.93755 16.4953 7.35739L17.6137 12.0176C17.7988 12.7889 18.131 13.5173 18.5921 14.1628L19.0628 14.8217C19.6143 15.5939 19.0624 16.6665 18.1134 16.6665H5.88618C4.93725 16.6665 4.38527 15.5939 4.93682 14.8217L5.40751 14.1628C5.86855 13.5173 6.20074 12.7889 6.38586 12.0176L7.50433 7.35736C7.84509 5.93753 8.83657 4.76214 10.1787 4.18696ZM14.4775 2.65504C12.8953 1.97696 11.1043 1.97696 9.52212 2.65505C7.69621 3.43759 6.34729 5.03672 5.88369 6.9684L4.76522 11.6287C4.63013 12.1915 4.38772 12.723 4.05128 13.194L3.5806 13.853C2.24111 15.7283 3.58163 18.3332 5.88618 18.3332H8.16648C8.16648 20.4503 9.88272 22.1665 11.9998 22.1665C14.1169 22.1665 15.8331 20.4503 15.8331 18.3332H18.1134C20.418 18.3332 21.7585 15.7283 20.419 13.853L19.9483 13.194C19.6119 12.723 19.3695 12.1915 19.2344 11.6286L18.1159 6.96844C17.6523 5.03673 16.3034 3.43758 14.4775 2.65504ZM14.1665 18.3332H9.83315C9.83315 19.5298 10.8032 20.4998 11.9998 20.4998C13.1964 20.4998 14.1665 19.5298 14.1665 18.3332Z" fill="white"/>
</svg>
