<svg width="24" height="24" viewBox="0 0 24 24" fill="none" xmlns="http://www.w3.org/2000/svg">
<path fill-rule="evenodd" clip-rule="evenodd" d="M18.0774 4.74408C18.4028 4.41864 18.9305 4.41864 19.2559 4.74408C19.5814 5.06951 19.5814 5.59715 19.2559 5.92259L13.1785 12L19.2559 18.0774C19.5814 18.4028 19.5814 18.9305 19.2559 19.2559C18.9305 19.5814 18.4028 19.5814 18.0774 19.2559L12 13.1785L5.92259 19.2559C5.59715 19.5814 5.06951 19.5814 4.74408 19.2559C4.41864 18.9305 4.41864 18.4028 4.74408 18.0774L10.8215 12L4.74408 5.92259C4.41864 5.59715 4.41864 5.06951 4.74408 4.74408C5.06952 4.41864 5.59715 4.41864 5.92259 4.74408L12 10.8215L18.0774 4.74408Z" fill="white"/>
</svg>
