<svg width="20" height="50" viewBox="0 0 20 50" fill="none" xmlns="http://www.w3.org/2000/svg">
<path fill-rule="evenodd" clip-rule="evenodd" d="M19.2015 42.2713C19.7451 41.8458 19.8408 41.0601 19.4153 40.5165C18.9898 39.9729 18.2042 39.8771 17.6605 40.3027C16.8072 40.9706 14.9265 42.3694 12.9781 43.7246C12.1466 44.303 11.3253 44.8573 10.578 45.3388C12.8725 38.9276 13.4686 31.412 12.7369 24.0581C11.9058 15.704 9.34976 7.43835 5.48465 1.08177C5.12598 0.491902 4.35704 0.304479 3.76717 0.66315C3.1773 1.02182 2.98987 1.79076 3.34854 2.38063C6.98768 8.36556 9.4486 16.2583 10.2492 24.3056C10.9873 31.7243 10.3045 39.1724 7.92296 45.3039C7.32124 44.5305 6.67834 43.6235 6.05206 42.6657C4.85584 40.8363 3.79641 38.9384 3.25426 37.6112C2.9932 36.9721 2.26348 36.6657 1.62439 36.9268C0.985295 37.1878 0.678842 37.9175 0.939904 38.5566C1.56807 40.0944 2.72347 42.1433 3.95966 44.0339C5.1902 45.9158 6.57715 47.7582 7.70186 48.8374C8.06722 49.188 8.60799 49.2835 9.07136 49.0794C10.3339 48.5231 12.4631 47.1281 14.4056 45.777C16.3858 44.3997 18.3051 42.9729 19.2015 42.2713Z" fill="white"/>
</svg>
