<svg width="24" height="24" viewBox="0 0 24 24" fill="none" xmlns="http://www.w3.org/2000/svg">
<path fill-rule="evenodd" clip-rule="evenodd" d="M6.16634 6.5C6.16634 4.56701 7.73334 3 9.66634 3H18.9997C20.9327 3 22.4997 4.567 22.4997 6.5V12.8333C22.4997 14.7663 20.9327 16.3333 18.9997 16.3333H17.8333V17.5C17.8333 19.433 16.2663 21 14.3333 21H5C3.06701 21 1.5 19.433 1.5 17.5V11.1667C1.5 9.23367 3.067 7.66667 5 7.66667H6.16634V6.5ZM7.83301 7.66667H14.3333C16.2663 7.66667 17.8333 9.23367 17.8333 11.1667V14.6667H18.9997C20.0122 14.6667 20.833 13.8459 20.833 12.8333V6.5C20.833 5.48748 20.0122 4.66667 18.9997 4.66667H9.66634C8.65382 4.66667 7.83301 5.48748 7.83301 6.5V7.66667ZM3.16667 11.1667C3.16667 10.1541 3.98748 9.33333 5 9.33333H14.3333C15.3459 9.33333 16.1667 10.1541 16.1667 11.1667V17.5C16.1667 18.5125 15.3459 19.3333 14.3333 19.3333H5C3.98748 19.3333 3.16667 18.5125 3.16667 17.5V11.1667Z" fill="white"/>
</svg>
