<svg width="40" height="56" viewBox="0 0 40 56" fill="none" xmlns="http://www.w3.org/2000/svg">
<path fill-rule="evenodd" clip-rule="evenodd" d="M11 16C9.89543 16 9 16.8954 9 18V25.7511C4.74194 29.0431 2 34.2013 2 40V56H38V40C38 34.2013 35.2581 29.0431 31 25.7511V18C31 16.8954 30.1046 16 29 16H11Z" fill="white"/>
<path fill-rule="evenodd" clip-rule="evenodd" d="M11 16C9.89543 16 9 16.8954 9 18V25.7511C4.74194 29.0431 2 34.2013 2 40V56H38V40C38 34.2013 35.2581 29.0431 31 25.7511V18C31 16.8954 30.1046 16 29 16H11Z" fill="url(#paint0_linear_171_1039)" fill-opacity="0.5"/>
<g opacity="0.75">
<mask id="mask0_171_1039" style="mask-type:alpha" maskUnits="userSpaceOnUse" x="2" y="16" width="36" height="40">
<path fill-rule="evenodd" clip-rule="evenodd" d="M11 16C9.89543 16 9 16.8954 9 18V25.7511C4.74194 29.0431 2 34.2013 2 40V56H38V40C38 34.2013 35.2581 29.0431 31 25.7511V18C31 16.8954 30.1046 16 29 16H11Z" fill="white"/>
</mask>
<g mask="url(#mask0_171_1039)">
<g filter="url(#filter0_f_171_1039)">
<path d="M38 57V40C38 34.2013 35.2581 29.0431 31 25.7511V18C31 16.8954 30.1046 16 29 16H11" stroke="white"/>
</g>
<g filter="url(#filter1_f_171_1039)">
<path d="M2 57V40C2 34.2013 4.74194 29.0431 9 25.7511V15" stroke="black"/>
</g>
</g>
</g>
<path d="M14.5914 4.33861C15.1548 1.80362 17.4032 0 20 0C22.5968 0 24.8452 1.80361 25.4086 4.33861L28 16H12L14.5914 4.33861Z" fill="#8C66FF"/>
<path d="M14.5914 4.33861C15.1548 1.80362 17.4032 0 20 0C22.5968 0 24.8452 1.80361 25.4086 4.33861L28 16H12L14.5914 4.33861Z" fill="url(#paint1_linear_171_1039)" fill-opacity="0.5"/>
<g opacity="0.5">
<path d="M20 36V44" stroke="black" stroke-width="3" stroke-linecap="round"/>
<path d="M16 40L24 40" stroke="black" stroke-width="3" stroke-linecap="round"/>
</g>
<defs>
<filter id="filter0_f_171_1039" x="7" y="11.5" width="35.5" height="49.5" filterUnits="userSpaceOnUse" color-interpolation-filters="sRGB">
<feFlood flood-opacity="0" result="BackgroundImageFix"/>
<feBlend mode="normal" in="SourceGraphic" in2="BackgroundImageFix" result="shape"/>
<feGaussianBlur stdDeviation="2" result="effect1_foregroundBlur_171_1039"/>
</filter>
<filter id="filter1_f_171_1039" x="-4.5" y="9" width="20" height="54" filterUnits="userSpaceOnUse" color-interpolation-filters="sRGB">
<feFlood flood-opacity="0" result="BackgroundImageFix"/>
<feBlend mode="normal" in="SourceGraphic" in2="BackgroundImageFix" result="shape"/>
<feGaussianBlur stdDeviation="3" result="effect1_foregroundBlur_171_1039"/>
</filter>
<linearGradient id="paint0_linear_171_1039" x1="38" y1="36.8" x2="9.5" y2="36.8" gradientUnits="userSpaceOnUse">
<stop/>
<stop offset="1" stop-opacity="0"/>
</linearGradient>
<linearGradient id="paint1_linear_171_1039" x1="12" y1="16" x2="28" y2="16" gradientUnits="userSpaceOnUse">
<stop stop-color="white" stop-opacity="0.25"/>
<stop offset="1" stop-opacity="0.75"/>
</linearGradient>
</defs>
</svg>
