<svg width="24" height="24" viewBox="0 0 24 24" fill="none" xmlns="http://www.w3.org/2000/svg">
<path fill-rule="evenodd" clip-rule="evenodd" d="M12.0003 1.99998C12.4606 1.99998 12.8337 2.37308 12.8337 2.83331V14.1842L17.8393 10.4958C18.2098 10.2228 18.7315 10.3018 19.0045 10.6723C19.2776 11.0428 19.1985 11.5645 18.828 11.8375L12.5017 16.499C12.3656 16.6017 12.1968 16.6636 12.0138 16.6665C12.012 16.6666 12.0102 16.6666 12.0085 16.6666C12.0013 16.6667 11.9941 16.6667 11.9869 16.6665C11.8038 16.6636 11.6351 16.6017 11.4989 16.499L5.17266 11.8375C4.80214 11.5645 4.7231 11.0428 4.99611 10.6723C5.26912 10.3018 5.79081 10.2228 6.16132 10.4958L11.167 14.1842V2.83331C11.167 2.37308 11.5401 1.99998 12.0003 1.99998ZM5.66699 20.3333C5.20675 20.3333 4.83366 19.9602 4.83366 19.5C4.83366 19.0397 5.20675 18.6666 5.66699 18.6666H18.3337C18.7939 18.6666 19.167 19.0397 19.167 19.5C19.167 19.9602 18.7939 20.3333 18.3337 20.3333H5.66699Z" fill="white"/>
</svg>
