<svg width="24" height="25" viewBox="0 0 24 25" fill="none" xmlns="http://www.w3.org/2000/svg">
<path fill-rule="evenodd" clip-rule="evenodd" d="M14.5979 5.16667L20.3714 15.1667C21.5261 17.1667 20.0828 19.6667 17.7734 19.6667H6.22636C3.91696 19.6667 2.47359 17.1667 3.62829 15.1667L9.40179 5.16666C10.5565 3.16667 13.4432 3.16667 14.5979 5.16667ZM7.95842 4.33333C9.75462 1.22222 14.2451 1.22223 16.0413 4.33334L21.8148 14.3333C23.611 17.4444 21.3658 21.3333 17.7734 21.3333H6.22636C2.63396 21.3333 0.388711 17.4444 2.18491 14.3333L7.95842 4.33333ZM13.0829 16.25C13.0829 15.6517 12.5978 15.1666 11.9995 15.1666C11.4012 15.1666 10.9162 15.6517 10.9162 16.25C10.9162 16.8483 11.4012 17.3333 11.9995 17.3333C12.5978 17.3333 13.0829 16.8483 13.0829 16.25ZM11.9995 13.3333C12.4598 13.3333 12.8329 12.9602 12.8329 12.5V8.16665C12.8329 7.70641 12.4598 7.33332 11.9995 7.33332C11.5393 7.33332 11.1662 7.70641 11.1662 8.16665V12.5C11.1662 12.9602 11.5393 13.3333 11.9995 13.3333Z" fill="white"/>
</svg>
