<svg width="22" height="22" viewBox="0 0 22 22" fill="none" xmlns="http://www.w3.org/2000/svg">
<path d="M0.797363 14.355C1.11523 14.6729 1.58691 14.6626 1.89453 14.355L3.69922 12.5503C9.99512 6.25439 13.5737 2.59375 14.835 3.84473C15.7168 4.72656 13.5532 7.21826 10.8872 10.3662C8.1084 13.6475 5.04248 17.0518 7.12402 19.1436C8.92871 20.9585 11.8511 18.6411 14.5684 16.0059C16.6294 14.0063 18.229 12.458 18.7725 12.9912C19.2339 13.4526 18.5776 14.3652 17.7983 15.7085C16.814 17.4106 15.563 19.2358 16.7524 20.4253C17.665 21.3379 19.2134 20.8047 21.1206 18.8462C21.5103 18.4668 21.5205 17.9951 21.2026 17.6772C20.8848 17.3696 20.4233 17.3799 20.1055 17.6875C18.6187 19.0718 17.9829 19.4512 17.7368 19.2051C17.4497 18.918 17.8599 18.3027 18.957 16.498C20.3413 14.2319 20.8438 12.8784 19.9004 11.9351C18.6084 10.6328 16.6909 11.812 13.4609 14.8882C10.2925 17.8926 8.8877 18.7026 8.22119 18.0464C7.41113 17.2568 8.47754 15.4727 12.0459 11.3711C16.0449 6.75684 17.5933 4.40869 15.9219 2.74756C13.8608 0.696777 11.564 2.49121 2.6123 11.4531L0.797363 13.2578C0.489746 13.5654 0.5 14.0371 0.797363 14.355Z" fill="white"/>
</svg>
