<svg width="24" height="24" viewBox="0 0 24 24" fill="none" xmlns="http://www.w3.org/2000/svg">
<path d="M5.39648 19.2822C8.23682 22.1226 11.9282 22.9736 13.7432 23.1479C14.2764 23.2095 14.5737 22.8813 14.6147 22.543C14.6558 22.1841 14.4302 21.7944 13.9175 21.7227C12.2769 21.4971 8.89307 20.7588 6.42188 18.2671C2.40234 14.2373 1.64355 8.14648 4.9248 4.86523C7.59082 2.20947 12.0308 2.54785 15.3018 4.31152L16.3682 3.27588C12.3896 0.886719 7.03711 0.691895 3.89941 3.83984C0.166992 7.58252 0.65918 14.5449 5.39648 19.2822ZM20.4287 4.75244L21.249 3.93213C21.6387 3.54248 21.6592 2.96826 21.2593 2.59912L20.9927 2.35303C20.644 2.0249 20.0903 2.0249 19.7212 2.39404L18.9111 3.22461L20.4287 4.75244ZM10.4722 14.6885L19.6802 5.49072L18.1523 3.97314L8.95459 13.1606L8.11377 15.1191C8.02148 15.3345 8.23682 15.5601 8.4624 15.478L10.4722 14.6885ZM9.12891 16.2163C12.4819 19.5693 17.8755 20.8921 20.8901 17.8877C23.3511 15.4165 23.0332 11.0278 20.3979 7.25439L19.3521 8.30029C21.4438 11.397 21.854 14.873 19.8647 16.8623C17.4448 19.2822 13.4458 18.1338 10.6978 15.5396L9.12891 16.2163Z" fill="white"/>
</svg>
