<svg width="24" height="24" viewBox="0 0 24 24" fill="none" xmlns="http://www.w3.org/2000/svg">
<path fill-rule="evenodd" clip-rule="evenodd" d="M6.70643 5.66663H4.66602H2.99935C2.53911 5.66663 2.16602 6.03972 2.16602 6.49996C2.16602 6.9602 2.53911 7.33329 2.99935 7.33329H3.905L4.83872 17.6042C5.06505 20.0938 7.15239 22 9.65221 22H14.3465C16.8463 22 18.9337 20.0938 19.16 17.6042L20.0937 7.33329H20.9993C21.4596 7.33329 21.8327 6.9602 21.8327 6.49996C21.8327 6.03972 21.4596 5.66663 20.9993 5.66663H19.3327H17.2924C16.6394 3.35812 14.5169 1.66663 11.9994 1.66663C9.48184 1.66663 7.35935 3.35812 6.70643 5.66663ZM8.47065 5.66663H15.5281C14.9443 4.29499 13.5842 3.33329 11.9994 3.33329C10.4146 3.33329 9.05445 4.29499 8.47065 5.66663ZM5.57854 7.33329H18.4202L17.5002 17.4533C17.3519 19.0844 15.9843 20.3333 14.3465 20.3333H9.65221C8.0144 20.3333 6.64683 19.0844 6.49855 17.4533L5.57854 7.33329Z" fill="white"/>
</svg>
