<svg width="49" height="48" viewBox="0 0 49 48" fill="none" xmlns="http://www.w3.org/2000/svg">
<path fill-rule="evenodd" clip-rule="evenodd" d="M16.4426 6.12962C17.1074 5.94348 17.7972 6.3315 17.9833 6.99629L19.709 13.1593C21.2583 12.8907 22.861 12.75 24.4991 12.75C26.1376 12.75 27.7407 12.8908 29.2903 13.1595L31.016 6.99629C31.2022 6.3315 31.892 5.94348 32.5568 6.12962C33.2216 6.31576 33.6096 7.00558 33.4234 7.67036L31.735 13.7004C34.5136 14.452 37.0713 15.6264 39.2896 17.1395L44.2924 12.2475C44.786 11.7649 45.5774 11.7738 46.0601 12.2673C46.5427 12.7609 46.5339 13.5524 46.0403 14.035L41.2926 18.6774C43.5206 20.6013 45.2767 22.9161 46.3948 25.5043C46.5315 25.8206 46.5315 26.1794 46.3948 26.4957C43.1392 34.0319 34.4744 39.25 24.4991 39.25C14.5239 39.25 5.85906 34.0319 2.60347 26.4957C2.46681 26.1794 2.46681 25.8206 2.60347 25.5043C3.72165 22.9159 5.47794 20.6009 7.70627 18.6769L2.95909 14.035C2.46549 13.5524 2.45662 12.7609 2.93927 12.2673C3.42193 11.7738 4.21333 11.7649 4.70693 12.2475L9.70932 17.139C11.9277 15.6259 14.4855 14.4517 17.2642 13.7001L15.5759 7.67036C15.3898 7.00558 15.7778 6.31576 16.4426 6.12962ZM24.4991 36.75C15.5535 36.75 8.07818 32.1949 5.1237 26C8.07818 19.8051 15.5535 15.25 24.4991 15.25C33.4448 15.25 40.9201 19.8051 43.8746 26C40.9201 32.1949 33.4448 36.75 24.4991 36.75ZM20.4163 26C20.4163 23.7448 22.2445 21.9167 24.4997 21.9167C26.7548 21.9167 28.583 23.7448 28.583 26C28.583 28.2552 26.7548 30.0833 24.4997 30.0833C22.2445 30.0833 20.4163 28.2552 20.4163 26ZM24.4997 19.4167C20.8638 19.4167 17.9163 22.3641 17.9163 26C17.9163 29.6359 20.8638 32.5833 24.4997 32.5833C28.1355 32.5833 31.083 29.6359 31.083 26C31.083 22.3641 28.1355 19.4167 24.4997 19.4167Z" fill="white"/>
</svg>
