<svg width="40" height="56" viewBox="0 0 40 56" fill="none" xmlns="http://www.w3.org/2000/svg">
<path d="M2 18V56H38V18C38 16.8954 37.1046 16 36 16H4C2.89543 16 2 16.8954 2 18Z" fill="white"/>
<path d="M2 18V56H38V18C38 16.8954 37.1046 16 36 16H4C2.89543 16 2 16.8954 2 18Z" fill="url(#paint0_linear_282_1455)" fill-opacity="0.5"/>
<g opacity="0.75">
<mask id="mask0_282_1455" style="mask-type:alpha" maskUnits="userSpaceOnUse" x="2" y="16" width="36" height="40">
<path d="M2 18V56H38V18C38 16.8954 37.1046 16 36 16H4C2.89543 16 2 16.8954 2 18Z" fill="white"/>
</mask>
<g mask="url(#mask0_282_1455)">
<g filter="url(#filter0_f_282_1455)">
<path d="M2 56.9999V16.0001" stroke="black"/>
</g>
<g filter="url(#filter1_f_282_1455)">
<path d="M38 57V18C38 16.8954 37.1046 16 36 16H4" stroke="white"/>
</g>
</g>
</g>
<path opacity="0.5" d="M16 36L24 36" stroke="black" stroke-width="3" stroke-linecap="round"/>
<path d="M4 6V16H36V6C36 2.68629 33.3137 0 30 0H10C6.68629 0 4 2.68629 4 6Z" fill="#F996B6"/>
<path d="M4 6V16H36V6C36 2.68629 33.3137 0 30 0H10C6.68629 0 4 2.68629 4 6Z" fill="url(#paint1_linear_282_1455)" fill-opacity="0.5"/>
<defs>
<filter id="filter0_f_282_1455" x="-4.5" y="10.0001" width="13" height="52.9999" filterUnits="userSpaceOnUse" color-interpolation-filters="sRGB">
<feFlood flood-opacity="0" result="BackgroundImageFix"/>
<feBlend mode="normal" in="SourceGraphic" in2="BackgroundImageFix" result="shape"/>
<feGaussianBlur stdDeviation="3" result="effect1_foregroundBlur_282_1455"/>
</filter>
<filter id="filter1_f_282_1455" x="0" y="11.5" width="42.5" height="49.5" filterUnits="userSpaceOnUse" color-interpolation-filters="sRGB">
<feFlood flood-opacity="0" result="BackgroundImageFix"/>
<feBlend mode="normal" in="SourceGraphic" in2="BackgroundImageFix" result="shape"/>
<feGaussianBlur stdDeviation="2" result="effect1_foregroundBlur_282_1455"/>
</filter>
<linearGradient id="paint0_linear_282_1455" x1="38" y1="36.8" x2="9.5" y2="36.8" gradientUnits="userSpaceOnUse">
<stop/>
<stop offset="1" stop-opacity="0"/>
</linearGradient>
<linearGradient id="paint1_linear_282_1455" x1="4" y1="16" x2="36" y2="16" gradientUnits="userSpaceOnUse">
<stop stop-color="white" stop-opacity="0.25"/>
<stop offset="1" stop-opacity="0.75"/>
</linearGradient>
</defs>
</svg>
