<svg width="25" height="24" viewBox="0 0 25 24" fill="none" xmlns="http://www.w3.org/2000/svg">
<path d="M15.2291 3.45964L14.4168 3.27782L15.2291 3.45963C15.4369 2.53132 14.25 1.95737 13.6514 2.69677L5.44024 12.8394L6.08793 13.3638L5.44024 12.8394C4.96387 13.4279 5.38265 14.3057 6.13975 14.3057H9.4077C10.1643 14.3057 10.7208 15.0148 10.5409 15.7497L9.37542 20.5125C9.14694 21.4461 10.3448 22.0397 10.9493 21.2924L10.324 20.7865L10.9493 21.2924L19.56 10.6482C20.0361 10.0597 19.6172 9.18212 18.8603 9.18212H15.405C14.6579 9.18212 14.1033 8.4897 14.2665 7.76064L15.2291 3.45964Z" stroke="white" stroke-width="1.66667" stroke-linejoin="round"/>
</svg>
