<svg width="24" height="24" viewBox="0 0 24 24" fill="none" xmlns="http://www.w3.org/2000/svg">
<g clip-path="url(#clip0_4972_17285)">
<path d="M9.02212 13.8001L6.47707 4.30182C6.23883 3.41271 6.76647 2.49881 7.65558 2.26058C8.54469 2.02234 9.45858 2.54998 9.69682 3.43909L10.9716 8.19672L15.6086 8.18081C17.6511 8.17379 19.4421 9.54322 19.9707 11.5161L20.2397 12.5198C21.1688 15.9874 19.111 19.5515 15.6435 20.4807L15.3205 20.5672C12.6021 21.2956 9.69926 20.6312 7.56828 18.7928L4.44384 16.0974C3.80009 15.542 3.62425 14.6161 4.01958 13.8634C4.42434 13.0927 5.31639 12.7144 6.15174 12.9592L9.02212 13.8001Z" stroke="white" stroke-width="1.66667" stroke-linejoin="round"/>
</g>
<defs>
<clipPath id="clip0_4972_17285">
<rect width="24" height="24" fill="white"/>
</clipPath>
</defs>
</svg>
