<svg width="24" height="24" viewBox="0 0 24 24" fill="none" xmlns="http://www.w3.org/2000/svg">
<path fill-rule="evenodd" clip-rule="evenodd" d="M5.83268 4C3.80764 4 2.16602 5.64162 2.16602 7.66666V16.3333C2.16602 18.3584 3.80764 20 5.83268 20H18.166C20.1911 20 21.8327 18.3584 21.8327 16.3333V7.66667C21.8327 5.64162 20.1911 4 18.166 4H5.83268ZM3.83268 7.66666C3.83268 6.5621 4.72811 5.66667 5.83268 5.66667H18.166C19.2706 5.66667 20.166 6.5621 20.166 7.66667V13.8215L17.1981 10.8536C16.3519 10.0074 14.9801 10.0074 14.134 10.8536L11.991 12.9965C11.5354 13.4521 10.7967 13.4521 10.3411 12.9965L9.86475 12.5202C9.01861 11.6741 7.64676 11.6741 6.80062 12.5202L3.83268 15.4882V7.66666ZM4.19549 17.4824C4.55736 17.997 5.15575 18.3333 5.83268 18.3333H18.166C19.2706 18.3333 20.166 17.4379 20.166 16.3333V16.1668C20.1349 16.1434 20.1051 16.1176 20.0768 16.0893L16.0196 12.0321C15.8243 11.8368 15.5077 11.8368 15.3125 12.0321L13.1695 14.175C12.063 15.2815 10.269 15.2815 9.16255 14.175L8.68624 13.6987C8.49097 13.5035 8.17439 13.5035 7.97913 13.6987L4.19549 17.4824Z" fill="white"/>
</svg>
