<svg width="22" height="20" viewBox="0 0 22 20" fill="none" xmlns="http://www.w3.org/2000/svg">
<path d="M0.817871 6.69482C0.817871 11.063 4.47852 15.3594 10.2617 19.0508C10.4771 19.1841 10.7847 19.3276 11 19.3276C11.2153 19.3276 11.5229 19.1841 11.7485 19.0508C17.5215 15.3594 21.1821 11.063 21.1821 6.69482C21.1821 3.06494 18.6904 0.501465 15.3682 0.501465C13.4712 0.501465 11.9331 1.40381 11 2.78809C10.0874 1.41406 8.52881 0.501465 6.63184 0.501465C3.30957 0.501465 0.817871 3.06494 0.817871 6.69482ZM2.46875 6.69482C2.46875 3.96729 4.23242 2.15234 6.61133 2.15234C8.53906 2.15234 9.64648 3.35205 10.3027 4.37744C10.5796 4.7876 10.7539 4.90039 11 4.90039C11.2461 4.90039 11.3999 4.77734 11.6973 4.37744C12.4048 3.37256 13.4712 2.15234 15.3887 2.15234C17.7676 2.15234 19.5312 3.96729 19.5312 6.69482C19.5312 10.5093 15.5015 14.6211 11.2153 17.4717C11.1128 17.5435 11.041 17.5947 11 17.5947C10.959 17.5947 10.8872 17.5435 10.7949 17.4717C6.49854 14.6211 2.46875 10.5093 2.46875 6.69482Z" fill="white"/>
</svg>
