<svg width="24" height="24" viewBox="0 0 24 24" fill="none" xmlns="http://www.w3.org/2000/svg">
<path fill-rule="evenodd" clip-rule="evenodd" d="M12.7487 6.40492L13.2575 1.99548C13.2798 1.80212 13.3748 1.63285 13.5133 1.51371C13.6449 1.40108 13.8156 1.33337 14.0007 1.33337C14.2004 1.33337 14.3835 1.41215 14.5186 1.54171C14.6403 1.65824 14.723 1.81645 14.7437 1.99548L15.2525 6.40498C15.3945 7.63558 16.3653 8.60634 17.5959 8.74836L22.005 9.2572C22.3825 9.30082 22.6673 9.61983 22.6673 10C22.6673 10.3802 22.3825 10.6993 22.005 10.7429L17.5959 11.2517C16.3653 11.3937 15.3945 12.3645 15.2525 13.5951L14.7437 18.0046C14.7002 18.3816 14.3805 18.6667 14.0007 18.6667C13.6208 18.6667 13.3011 18.3816 13.2575 18.0046L12.7487 13.5952C12.6068 12.3645 11.636 11.3937 10.4054 11.2517L5.99626 10.7429C5.61881 10.6993 5.33398 10.3802 5.33398 10C5.33398 9.61983 5.61881 9.30082 5.99626 9.2572L10.4054 8.74836C11.636 8.60634 12.6068 7.63555 12.7487 6.40492ZM3.44045 17.9912L1.83226 18.1252C1.55062 18.1487 1.33398 18.3841 1.33398 18.6667C1.33398 18.9493 1.55062 19.1848 1.83226 19.2082L3.44044 19.3422C4.08941 19.3963 4.60437 19.9113 4.65845 20.5602L4.79246 22.1684C4.81593 22.4501 5.05137 22.6667 5.33398 22.6667C5.6166 22.6667 5.85204 22.4501 5.87551 22.1684L6.00952 20.5602C6.0636 19.9113 6.57856 19.3963 7.22752 19.3422L8.83571 19.2082C9.11735 19.1848 9.33399 18.9493 9.33399 18.6667C9.33399 18.3841 9.11735 18.1487 8.83571 18.1252L7.22752 17.9912C6.57856 17.9371 6.0636 17.4221 6.00952 16.7732L5.87551 15.165C5.85204 14.8833 5.6166 14.6667 5.33398 14.6667C5.05137 14.6667 4.81593 14.8833 4.79246 15.165L4.65845 16.7732C4.60437 17.4221 4.08941 17.9371 3.44045 17.9912Z" fill="white"/>
</svg>
