<svg width="24" height="22" viewBox="0 0 24 22" fill="none" xmlns="http://www.w3.org/2000/svg">
<path d="M9.28271 5.15186C9.42627 5.15186 9.5083 5.05957 9.52881 4.92627C9.87744 3.23438 9.85693 3.18311 11.6206 2.83447C11.7744 2.80371 11.8564 2.72168 11.8564 2.57812C11.8564 2.44482 11.7744 2.36279 11.6309 2.33203C9.84668 1.97314 9.85693 1.92188 9.52881 0.240234C9.5083 0.106934 9.42627 0.0146484 9.28271 0.0146484C9.14941 0.0146484 9.06738 0.106934 9.03662 0.240234C8.68799 1.94238 8.71875 2.00391 6.94482 2.33203C6.80127 2.35254 6.70898 2.44482 6.70898 2.57812C6.70898 2.72168 6.80127 2.80371 6.93457 2.83447C8.71875 3.19336 8.7085 3.23438 9.03662 4.92627C9.05713 5.05957 9.14941 5.15186 9.28271 5.15186ZM18.0396 8.80225C18.1934 8.80225 18.3062 8.68945 18.3267 8.53564C18.6958 6.54639 18.6855 6.44385 20.7773 6.08496C20.9414 6.0542 21.0542 5.95166 21.0542 5.7876C21.0542 5.62354 20.9414 5.521 20.7876 5.49023C18.6753 5.12109 18.6548 5.01855 18.3267 3.0498C18.3062 2.88574 18.1934 2.77295 18.0396 2.77295C17.8755 2.77295 17.7729 2.88574 17.7422 3.03955C17.3936 5.03906 17.3936 5.16211 15.2915 5.49023C15.1377 5.521 15.0146 5.62354 15.0146 5.7876C15.0249 5.95166 15.1274 6.0542 15.2915 6.08496C17.3936 6.4541 17.4141 6.55664 17.7422 8.53564C17.7729 8.68945 17.8755 8.80225 18.0396 8.80225ZM3.63281 11.8682C3.79688 11.8682 3.89941 11.7554 3.93018 11.6016C4.2583 9.6123 4.27881 9.49951 6.37061 9.15088C6.54492 9.12012 6.64746 9.01758 6.64746 8.85352C6.64746 8.68945 6.54492 8.58691 6.38086 8.55615C4.27881 8.18701 4.26855 8.08447 3.93018 6.10547C3.89941 5.95166 3.79688 5.83887 3.63281 5.83887C3.46875 5.83887 3.36621 5.95166 3.3457 6.10547C3.00732 8.10498 2.98682 8.20752 0.884766 8.55615C0.730957 8.58691 0.618164 8.68945 0.618164 8.85352C0.618164 9.01758 0.730957 9.12012 0.884766 9.15088C2.98682 9.52002 2.98682 9.62256 3.3457 11.6016C3.36621 11.7554 3.46875 11.8682 3.63281 11.8682ZM21.1875 20.6558C21.6797 21.1582 22.5308 21.1582 23.0127 20.6558C23.5049 20.1431 23.4946 19.333 23.0127 18.8306L13.2715 9.03809C12.7793 8.53564 11.918 8.53564 11.4463 9.03809C10.9438 9.56104 10.9541 10.3711 11.4463 10.8633L21.1875 20.6558ZM8.56494 20.9121C8.78027 20.9121 8.93408 20.7686 8.96484 20.5327C9.29297 17.7744 9.42627 17.6821 12.2461 17.2515C12.4922 17.2104 12.646 17.0771 12.646 16.8516C12.646 16.6362 12.4922 16.4927 12.2871 16.4517C9.43652 15.9082 9.29297 15.9287 8.96484 13.1704C8.93408 12.9346 8.78027 12.791 8.56494 12.791C8.34961 12.791 8.1958 12.9346 8.17529 13.1602C7.82666 15.9697 7.72412 16.062 4.85303 16.4517C4.64795 16.4824 4.49414 16.6362 4.49414 16.8516C4.49414 17.0669 4.64795 17.2104 4.84277 17.2515C7.72412 17.8052 7.81641 17.7949 8.17529 20.5532C8.1958 20.7686 8.35986 20.9121 8.56494 20.9121ZM21.6592 19.8457L15.8145 13.9907L16.3887 13.4165L22.2437 19.2715C22.4487 19.4766 22.5103 19.7124 22.3154 19.9277C22.1104 20.1123 21.8745 20.061 21.6592 19.8457Z" fill="white"/>
</svg>
