<svg width="24" height="25" viewBox="0 0 24 25" fill="none" xmlns="http://www.w3.org/2000/svg">
<path fill-rule="evenodd" clip-rule="evenodd" d="M20.3333 12.6667C20.3333 17.2691 16.6024 21 12 21C7.39763 21 3.66667 17.2691 3.66667 12.6667C3.66667 8.06431 7.39763 4.33335 12 4.33335C16.6024 4.33335 20.3333 8.06431 20.3333 12.6667ZM22 12.6667C22 18.1895 17.5228 22.6667 12 22.6667C6.47715 22.6667 2 18.1895 2 12.6667C2 7.14384 6.47715 2.66669 12 2.66669C17.5228 2.66669 22 7.14384 22 12.6667ZM8 11.8334C7.53976 11.8334 7.16667 12.2064 7.16667 12.6667C7.16667 13.1269 7.53976 13.5 8 13.5H16C16.4602 13.5 16.8333 13.1269 16.8333 12.6667C16.8333 12.2064 16.4602 11.8334 16 11.8334H8Z" fill="white"/>
</svg>
