<svg width="18" height="21" viewBox="0 0 18 21" fill="none" xmlns="http://www.w3.org/2000/svg">
<path fill-rule="evenodd" clip-rule="evenodd" d="M4.93697 2.64541C4.9044 2.51512 5.03142 2.40178 5.15718 2.44894L8.70736 3.78025C8.89079 3.84904 9.09258 3.851 9.27732 3.7858L13.0159 2.4663C13.1467 2.42014 13.2733 2.5446 13.2295 2.67617L12.5427 4.73645C12.4926 4.88681 12.4864 5.04834 12.5248 5.20209L13.141 7.66662H4.85895L5.47508 5.20209C5.50826 5.06939 5.50826 4.93057 5.47508 4.79787L4.93697 2.64541ZM4.52562 8.99996L2.15726 18.4734L3.00287 17.9212C4.16571 17.1617 5.66755 17.1617 6.83039 17.9212L7.99752 18.6834C8.60662 19.0811 9.39331 19.0811 10.0024 18.6834L11.1695 17.9212C12.3324 17.1617 13.8342 17.1617 14.9971 17.9212L15.8427 18.4734L13.4743 8.99996H4.52562ZM5.74239 0.888386C4.35907 0.369643 2.96175 1.61637 3.32007 3.04964L3.80765 4.99998L0.437253 18.4816C0.106412 19.8049 1.57054 20.8471 2.71265 20.1013L3.91418 19.3166C4.52329 18.9188 5.30997 18.9188 5.91908 19.3166L7.0862 20.0788C8.24904 20.8382 9.75089 20.8382 10.9137 20.0788L12.0809 19.3166C12.69 18.9188 13.4766 18.9188 14.0857 19.3166L15.2873 20.1013C16.4294 20.8471 17.8935 19.8049 17.5627 18.4816L14.2006 5.03329L14.8106 3.20322C15.2931 1.7559 13.8998 0.386898 12.4612 0.89465L9.0086 2.11322L5.74239 0.888386Z" fill="white"/>
</svg>
