<svg width="24" height="24" viewBox="0 0 24 24" fill="none" xmlns="http://www.w3.org/2000/svg">
<path d="M13.5003 12C13.5003 12.8284 12.8288 13.5 12.0003 13.5C11.1719 13.5 10.5003 12.8284 10.5003 12C10.5003 11.1716 11.1719 10.5 12.0003 10.5C12.8288 10.5 13.5003 11.1716 13.5003 12Z" fill="white"/>
<path d="M20.3337 12C20.3337 12.8284 19.6621 13.5 18.8337 13.5C18.0052 13.5 17.3337 12.8284 17.3337 12C17.3337 11.1716 18.0052 10.5 18.8337 10.5C19.6621 10.5 20.3337 11.1716 20.3337 12Z" fill="white"/>
<path d="M6.66699 12C6.66699 12.8284 5.99542 13.5 5.16699 13.5C4.33857 13.5 3.66699 12.8284 3.66699 12C3.66699 11.1716 4.33857 10.5 5.16699 10.5C5.99542 10.5 6.66699 11.1716 6.66699 12Z" fill="white"/>
</svg>
