<svg width="22" height="18" viewBox="0 0 22 18" fill="none" xmlns="http://www.w3.org/2000/svg">
<path d="M7.03125 17.9297C5.67969 17.9297 4.83594 17.0938 4.82031 15.7578L4.71875 8.13281L2.85156 8.5625C2.09375 8.73438 1.60938 8.42188 1.42188 7.64844L0.726562 4.875C0.539062 4.10938 0.828125 3.57812 1.55469 3.27344L6.98438 0.953125C7.39062 0.773438 7.67188 0.789062 8 0.945312C9.02344 1.42969 9.84375 1.67969 11 1.67969C12.1484 1.67969 12.9766 1.42969 13.9922 0.945312C14.3281 0.789062 14.6016 0.773438 15.0078 0.953125L20.4453 3.27344C21.1641 3.57812 21.4609 4.10938 21.2656 4.875L20.5781 7.64844C20.3828 8.42188 19.8984 8.73438 19.1484 8.5625L17.2812 8.13281L17.1797 15.7578C17.1562 17.0938 16.3125 17.9297 14.9688 17.9297H7.03125ZM7.04688 16.7266H14.9531C15.5859 16.7266 15.9688 16.3359 15.9766 15.6953L16.0859 6.98438C16.0859 6.79688 16.2266 6.66406 16.4453 6.71094L19.1797 7.32031C19.3281 7.35156 19.4219 7.28906 19.4531 7.16406L20.0781 4.70312C20.125 4.50781 20.0625 4.4375 19.9141 4.375L14.7891 2.17969C14.3828 3.92188 12.7891 5.15625 11 5.15625C9.20312 5.15625 7.60938 3.92188 7.21094 2.17969L2.08594 4.375C1.92969 4.4375 1.875 4.50781 1.92188 4.70312L2.53906 7.16406C2.57031 7.28906 2.67188 7.35156 2.82031 7.32031L5.55469 6.71094C5.76562 6.66406 5.91406 6.79688 5.91406 6.98438L6.02344 15.6953C6.03125 16.3359 6.41406 16.7266 7.04688 16.7266ZM11 2.8125C10.1016 2.8125 9.32031 2.66406 8.55469 2.36719C8.99219 3.3125 9.9375 3.95312 11 3.95312C12.0547 3.95312 13.0078 3.3125 13.4453 2.36719C12.6797 2.66406 11.8984 2.8125 11 2.8125Z" fill="white"/>
</svg>
