<svg width="24" height="24" viewBox="0 0 24 24" fill="none" xmlns="http://www.w3.org/2000/svg">
<path fill-rule="evenodd" clip-rule="evenodd" d="M11.834 4.83399H12.1673H17.5821L17.7024 6.00065H6.29887L6.41914 4.83399H11.834ZM6.16141 7.33399L4.92429 19.334H8.95522L10.3442 10.5374C10.4081 10.1323 10.7572 9.83399 11.1673 9.83399H11.834H12.1673H12.834C13.244 9.83399 13.5931 10.1323 13.6571 10.5374L15.046 19.334H19.077L17.8399 7.33399H6.16141ZM11.8794 11.5007H12.1219L13.5108 20.2973C13.5748 20.7023 13.9239 21.0007 14.334 21.0007H20.0006C20.2365 21.0007 20.4614 20.9007 20.6194 20.7255C20.7774 20.5504 20.8538 20.3165 20.8296 20.0819L19.1629 3.9152C19.1191 3.4903 18.7611 3.16732 18.334 3.16732H12.1673H11.834H5.6673C5.24015 3.16732 4.88216 3.4903 4.83836 3.9152L3.17169 20.0819C3.1475 20.3165 3.22389 20.5504 3.3819 20.7255C3.53991 20.9007 3.76475 21.0007 4.00063 21.0007H9.6673C10.0774 21.0007 10.4265 20.7023 10.4904 20.2973L11.8794 11.5007Z" fill="white"/>
</svg>
