<svg width="24" height="24" viewBox="0 0 24 24" fill="none" xmlns="http://www.w3.org/2000/svg">
<path fill-rule="evenodd" clip-rule="evenodd" d="M10.2026 3.04877C11.9249 2.74508 13.5673 3.89511 13.871 5.61745L15.4917 14.809C15.7954 16.5313 14.6454 18.1737 12.9231 18.4774L7.67076 19.4036C5.94843 19.7072 4.30601 18.5572 4.00232 16.8349L2.3816 7.64334C2.07791 5.92101 3.22794 4.27859 4.95027 3.9749L10.2026 3.04877ZM15.5124 5.32803C15.0488 2.69921 12.542 0.943896 9.91317 1.40743L4.66086 2.33355C2.03204 2.79708 0.276721 5.30393 0.740253 7.93275L2.36097 17.1243C2.8245 19.7531 5.33135 21.5084 7.96017 21.0449L13.2125 20.1188C15.8413 19.6552 17.5966 17.1484 17.1331 14.5196L15.5124 5.32803ZM18.2541 3.68931C17.8008 3.60939 17.3686 3.91203 17.2887 4.36528C17.2088 4.81852 17.5114 5.25074 17.9646 5.33066L19.0491 5.52187C20.7714 5.82556 21.9214 7.46798 21.6177 9.19031L19.997 18.3819C19.7078 20.0219 18.2041 21.1436 16.5744 20.9842C16.1164 20.9394 15.7087 21.2744 15.6639 21.7324C15.6191 22.1905 15.9541 22.5981 16.4122 22.643C18.9017 22.8865 21.1968 21.1755 21.6384 18.6713L23.2591 9.47973C23.7226 6.8509 21.9673 4.34406 19.3385 3.88052L18.2541 3.68931Z" fill="white"/>
</svg>
