<svg width="24" height="24" viewBox="0 0 24 24" fill="none" xmlns="http://www.w3.org/2000/svg">
<path fill-rule="evenodd" clip-rule="evenodd" d="M12.834 4.66671C12.834 4.20647 12.4609 3.83337 12.0007 3.83337C11.5404 3.83337 11.1673 4.20647 11.1673 4.66671V11.1667H4.66732C4.20708 11.1667 3.83398 11.5398 3.83398 12C3.83398 12.4603 4.20708 12.8334 4.66732 12.8334H11.1673V19.3334C11.1673 19.7936 11.5404 20.1667 12.0007 20.1667C12.4609 20.1667 12.834 19.7936 12.834 19.3334V12.8334H19.334C19.7942 12.8334 20.1673 12.4603 20.1673 12C20.1673 11.5398 19.7942 11.1667 19.334 11.1667H12.834V4.66671Z" fill="white"/>
</svg>
