<svg width="24" height="24" viewBox="0 0 24 24" fill="none" xmlns="http://www.w3.org/2000/svg">
<path d="M8.37886 19.2883L8.20847 19.3032L8.05772 19.384L7.00668 19.9476C6.50856 20.2146 5.89803 20.1515 5.46507 19.7882C5.0321 19.4249 4.86395 18.8347 5.04046 18.2977L5.41292 17.1648L5.46634 17.0023L5.45143 16.8319C5.35232 15.699 5.70731 14.5731 6.43831 13.7019L14.9308 3.58093C15.5817 2.8053 16.7381 2.70413 17.5137 3.35496L19.5565 5.06906C20.3321 5.7199 20.4333 6.87628 19.7824 7.65192L11.2899 17.7729C10.5589 18.6441 9.51178 19.1892 8.37886 19.2883Z" stroke="white" stroke-width="1.66667"/>
<path d="M13.3242 5.49609L18.1758 9.56708" stroke="white" stroke-width="1.66667"/>
</svg>
