<svg width="25" height="24" viewBox="0 0 25 24" fill="none" xmlns="http://www.w3.org/2000/svg">
<path fill-rule="evenodd" clip-rule="evenodd" d="M13.3346 3.49935C13.3346 3.03911 12.9615 2.66602 12.5013 2.66602C12.0411 2.66602 11.668 3.03911 11.668 3.49935V11.166H4.0013C3.54106 11.166 3.16797 11.5391 3.16797 11.9993C3.16797 12.4596 3.54106 12.8327 4.0013 12.8327H11.668V20.4993C11.668 20.9596 12.0411 21.3327 12.5013 21.3327C12.9615 21.3327 13.3346 20.9596 13.3346 20.4993V12.8327H21.0013C21.4615 12.8327 21.8346 12.4596 21.8346 11.9993C21.8346 11.5391 21.4615 11.166 21.0013 11.166H13.3346V3.49935Z" fill="white"/>
</svg>
