<svg width="24" height="24" viewBox="0 0 24 24" fill="none" xmlns="http://www.w3.org/2000/svg">
<path fill-rule="evenodd" clip-rule="evenodd" d="M6.20438 17.4251L6.31122 17.1001L6.2814 16.7593C6.20155 15.8465 6.48755 14.9395 7.07649 14.2376L13.4264 6.67009L17.0012 9.66976L10.6514 17.2373C10.0624 17.9391 9.21879 18.3783 8.30604 18.4582L7.96525 18.488L7.66375 18.6496L6.61271 19.2132C6.41491 19.3192 6.17246 19.2941 6.00053 19.1499C5.8286 19.0056 5.76183 18.7712 5.83192 18.558L6.20438 17.4251ZM18.0726 8.39302L19.1439 7.11627C19.4989 6.69319 19.4437 6.06244 19.0206 5.70744L16.9778 3.99334C16.5548 3.63833 15.924 3.69352 15.569 4.11659L14.4977 5.39335L18.0726 8.39302ZM4.24862 18.0375L4.62108 16.9045C4.5027 15.5515 4.92668 14.2068 5.79975 13.1663L14.2923 3.04528C15.2389 1.91708 16.921 1.76992 18.0492 2.7166L20.0919 4.4307C21.2201 5.37737 21.3673 7.05938 20.4206 8.18758L11.9281 18.3086C11.055 19.3491 9.80439 20.0001 8.4513 20.1185L7.40026 20.682C6.60183 21.1101 5.62322 21.009 4.92922 20.4266C4.23522 19.8443 3.96568 18.8981 4.24862 18.0375Z" fill="white"/>
</svg>
