<svg width="24" height="24" viewBox="0 0 24 24" fill="none" xmlns="http://www.w3.org/2000/svg">
<path fill-rule="evenodd" clip-rule="evenodd" d="M14.6078 2.76338L19.6078 8.09672C19.9083 8.41727 19.9083 8.91607 19.6078 9.23662L14.6078 14.57C14.293 14.9057 13.7656 14.9227 13.4299 14.608C13.0941 14.2932 13.0771 13.7658 13.3919 13.4301L17.0763 9.5H11.1662C8.71986 9.5 7.06363 10.1306 6.02977 11.0418C5.00615 11.944 4.49968 13.2022 4.49968 14.6667C4.49968 16.3675 5.49911 18.1657 7.17762 20.5156C7.44513 20.8902 7.35838 21.4106 6.98387 21.6781C6.60936 21.9456 6.0889 21.8589 5.8214 21.4844C4.16657 19.1676 2.83301 16.9658 2.83301 14.6667C2.83301 12.7978 3.49312 11.056 4.92775 9.79151C6.35213 8.53607 8.44582 7.83334 11.1662 7.83334H17.0763L13.3919 3.90329C13.0771 3.56753 13.0941 3.04016 13.4299 2.72539C13.7656 2.41061 14.293 2.42762 14.6078 2.76338Z" fill="white"/>
</svg>
