<svg width="20" height="20" viewBox="0 0 20 20" fill="none" xmlns="http://www.w3.org/2000/svg">
<path d="M2.66211 11.5264C2.66211 11.3271 2.72575 11.1639 2.85303 11.0366C2.98584 10.9038 3.15186 10.8374 3.35107 10.8374C3.55029 10.8374 3.70801 10.9038 3.82422 11.0366C3.94043 11.1639 3.99854 11.3271 3.99854 11.5264C3.99854 12.362 4.15348 13.145 4.46338 13.8755C4.77327 14.6004 5.20215 15.2396 5.75 15.793C6.29785 16.3408 6.93424 16.7669 7.65918 17.0713C8.38411 17.3812 9.16439 17.5361 10 17.5361C10.8301 17.5361 11.6076 17.3812 12.3325 17.0713C13.0575 16.7669 13.6938 16.3408 14.2417 15.793C14.7896 15.2396 15.2184 14.6004 15.5283 13.8755C15.8382 13.145 15.9932 12.362 15.9932 11.5264C15.9932 10.6963 15.8382 9.91878 15.5283 9.19385C15.2184 8.46891 14.7896 7.83252 14.2417 7.28467C13.6938 6.73682 13.0575 6.30794 12.3325 5.99805C11.6076 5.68815 10.8301 5.5332 10 5.5332C9.67904 5.5332 9.37467 5.54704 9.08691 5.57471C8.79915 5.60238 8.53353 5.64388 8.29004 5.69922L10.7637 8.15625C10.8301 8.22266 10.8771 8.29736 10.9048 8.38037C10.938 8.45785 10.9546 8.54085 10.9546 8.62939C10.9546 8.81755 10.891 8.97526 10.7637 9.10254C10.6419 9.22982 10.487 9.29346 10.2988 9.29346C10.0996 9.29346 9.93913 9.22982 9.81738 9.10254L6.39746 5.66602C6.32552 5.59408 6.27295 5.5166 6.23975 5.43359C6.20654 5.35059 6.18994 5.26204 6.18994 5.16797C6.18994 4.97982 6.25911 4.8138 6.39746 4.66992L9.81738 1.2002C9.93913 1.06738 10.1024 1.00098 10.3071 1.00098C10.4897 1.00098 10.6419 1.06738 10.7637 1.2002C10.891 1.32747 10.9546 1.48796 10.9546 1.68164C10.9546 1.76465 10.938 1.84766 10.9048 1.93066C10.8771 2.01367 10.8328 2.08838 10.772 2.15479L8.56396 4.33789C8.77979 4.29362 9.00944 4.26042 9.25293 4.23828C9.49642 4.21061 9.74544 4.19678 10 4.19678C11.0127 4.19678 11.9618 4.3877 12.8472 4.76953C13.7381 5.14583 14.5184 5.66878 15.188 6.33838C15.8576 7.00798 16.3805 7.78825 16.7568 8.6792C17.1387 9.56462 17.3296 10.5137 17.3296 11.5264C17.3296 12.5501 17.1387 13.5075 16.7568 14.3984C16.3805 15.2839 15.8576 16.0641 15.188 16.7393C14.5184 17.4089 13.7381 17.9318 12.8472 18.3081C11.9618 18.6844 11.0127 18.8726 10 18.8726C8.98177 18.8726 8.02718 18.6844 7.13623 18.3081C6.25081 17.9318 5.47331 17.4089 4.80371 16.7393C4.13411 16.0641 3.6084 15.2839 3.22656 14.3984C2.85026 13.5075 2.66211 12.5501 2.66211 11.5264Z" fill="white"/>
</svg>
