<svg width="24" height="24" viewBox="0 0 24 24" fill="none" xmlns="http://www.w3.org/2000/svg">
<path fill-rule="evenodd" clip-rule="evenodd" d="M10.8655 4.28555C10.9621 3.73492 11.4403 3.33329 11.9993 3.33329C12.5584 3.33329 13.0366 3.73493 13.1332 4.28555L13.1577 4.42525C13.4319 5.98791 15.2373 6.73572 16.5361 5.82461L16.6525 5.74297C17.1101 5.42192 17.7323 5.47608 18.1276 5.87138C18.5229 6.26668 18.577 6.88884 18.256 7.3465L18.1742 7.46314C17.2631 8.76196 18.0109 10.5673 19.5735 10.8415L19.7138 10.8661C20.2644 10.9627 20.666 11.4409 20.666 12C20.666 12.559 20.2644 13.0372 19.7138 13.1338L19.5739 13.1584C18.0112 13.4325 17.2634 15.2379 18.1745 16.5367L18.256 16.6529C18.5771 17.1106 18.5229 17.7327 18.1276 18.128C17.7323 18.5233 17.1101 18.5775 16.6525 18.2565L16.5362 18.1748C15.2373 17.2637 13.432 18.0116 13.1578 19.5742L13.1332 19.7144C13.0366 20.265 12.5584 20.6666 11.9993 20.6666C11.4403 20.6666 10.9621 20.265 10.8655 19.7144L10.8409 19.5741C10.5667 18.0114 8.76133 17.2636 7.46252 18.1747L7.34618 18.2563C6.88852 18.5774 6.26637 18.5232 5.87107 18.1279C5.47577 17.7326 5.42161 17.1104 5.74265 16.6528L5.82408 16.5367C6.73519 15.2379 5.98738 13.4325 4.42472 13.1583L4.28494 13.1338C3.73431 13.0372 3.33268 12.559 3.33268 12C3.33268 11.4409 3.73432 10.9627 4.28494 10.8661L4.42505 10.8415C5.9877 10.5674 6.73552 8.76198 5.82441 7.46316L5.74267 7.34663C5.42162 6.88897 5.47578 6.26682 5.87108 5.87152C6.26638 5.47622 6.88854 5.42205 7.3462 5.7431L7.4626 5.82475C8.76141 6.73586 10.5668 5.98805 10.8409 4.42539L10.8655 4.28555ZM11.9993 1.66663C10.6309 1.66663 9.46035 2.64973 9.22389 3.99755L9.19935 4.13739C9.13609 4.49801 8.71946 4.67058 8.41973 4.46032L8.30334 4.37867C7.18308 3.59282 5.66018 3.7254 4.69257 4.693C3.72497 5.66061 3.59239 7.18351 4.37824 8.30377L4.45998 8.4203C4.67024 8.72002 4.49767 9.13665 4.13705 9.19992L3.99694 9.2245C2.64913 9.46096 1.66602 10.6316 1.66602 12C1.66602 13.3684 2.64912 14.539 3.99694 14.7754L4.13672 14.7999C4.49734 14.8632 4.66991 15.2798 4.45965 15.5796L4.37822 15.6956C3.59237 16.8159 3.72495 18.3388 4.69256 19.3064C5.66016 20.274 7.18307 20.4066 8.30332 19.6207L8.41965 19.5391C8.71938 19.3289 9.13601 19.5015 9.19927 19.8621L9.22389 20.0024C9.46035 21.3502 10.6309 22.3333 11.9993 22.3333C13.3678 22.3333 14.5384 21.3502 14.7748 20.0024L14.7994 19.8622C14.8627 19.5016 15.2793 19.329 15.579 19.5393L15.6953 19.6209C16.8156 20.4067 18.3385 20.2742 19.3061 19.3065C20.2737 18.3389 20.4063 16.816 19.6204 15.6958L19.5389 15.5796C19.3287 15.2799 19.5013 14.8632 19.8619 14.8L20.0018 14.7754C21.3496 14.539 22.3327 13.3684 22.3327 12C22.3327 10.6316 21.3496 9.46096 20.0018 9.2245L19.8615 9.1999C19.5009 9.13663 19.3284 8.72 19.5386 8.42028L19.6204 8.30363C20.4063 7.18338 20.2737 5.66048 19.3061 4.69287C18.3385 3.72526 16.8156 3.59269 15.6953 4.37854L15.5789 4.46018C15.2792 4.67044 14.8626 4.49787 14.7993 4.13726L14.7748 3.99755C14.5384 2.64974 13.3678 1.66663 11.9993 1.66663ZM10.166 12C10.166 10.9874 10.9868 10.1666 11.9993 10.1666C13.0119 10.1666 13.8327 10.9874 13.8327 12C13.8327 13.0125 13.0119 13.8333 11.9993 13.8333C10.9868 13.8333 10.166 13.0125 10.166 12ZM11.9993 8.49996C10.0664 8.49996 8.49935 10.067 8.49935 12C8.49935 13.933 10.0664 15.5 11.9993 15.5C13.9323 15.5 15.4993 13.933 15.4993 12C15.4993 10.067 13.9323 8.49996 11.9993 8.49996Z" fill="white"/>
</svg>
