<svg width="24" height="24" viewBox="0 0 24 24" fill="none" xmlns="http://www.w3.org/2000/svg">
<path fill-rule="evenodd" clip-rule="evenodd" d="M15.3327 4.99996C15.3327 4.07948 16.0789 3.33329 16.9993 3.33329C17.9198 3.33329 18.666 4.07948 18.666 4.99996C18.666 5.92043 17.9198 6.66663 16.9993 6.66663C16.0789 6.66663 15.3327 5.92043 15.3327 4.99996ZM16.9993 1.66663C15.1584 1.66663 13.666 3.15901 13.666 4.99996C13.666 5.31415 13.7095 5.6182 13.7907 5.9064L7.36698 9.65359C6.76295 9.04412 5.92523 8.66663 4.99935 8.66663C3.1584 8.66663 1.66602 10.159 1.66602 12C1.66602 13.8409 3.1584 15.3333 4.99935 15.3333C5.92543 15.3333 6.7633 14.9556 7.36736 14.3459L13.7909 18.093C13.7095 18.3814 13.666 18.6856 13.666 19C13.666 20.8409 15.1584 22.3333 16.9993 22.3333C18.8403 22.3333 20.3327 20.8409 20.3327 19C20.3327 17.159 18.8403 15.6666 16.9993 15.6666C16.0733 15.6666 15.2355 16.0442 14.6315 16.6538L8.20787 12.9067C8.28918 12.6184 8.33268 12.3143 8.33268 12C8.33268 11.6855 8.28913 11.3811 8.20772 11.0927L14.6311 7.3457C15.2352 7.95554 16.0731 8.33329 16.9993 8.33329C18.8403 8.33329 20.3327 6.84091 20.3327 4.99996C20.3327 3.15901 18.8403 1.66663 16.9993 1.66663ZM15.3327 19C15.3327 18.0795 16.0789 17.3333 16.9993 17.3333C17.9198 17.3333 18.666 18.0795 18.666 19C18.666 19.9204 17.9198 20.6666 16.9993 20.6666C16.0789 20.6666 15.3327 19.9204 15.3327 19ZM4.99935 10.3333C4.07887 10.3333 3.33268 11.0795 3.33268 12C3.33268 12.9204 4.07887 13.6666 4.99935 13.6666C5.91982 13.6666 6.66602 12.9204 6.66602 12C6.66602 11.0795 5.91982 10.3333 4.99935 10.3333Z" fill="white"/>
</svg>
