<svg width="24" height="24" viewBox="0 0 24 24" fill="none" xmlns="http://www.w3.org/2000/svg">
<path fill-rule="evenodd" clip-rule="evenodd" d="M12 1.66669C12.1876 1.66669 12.3608 1.72869 12.5001 1.83333L17.4928 5.49468C17.8639 5.76685 17.9442 6.28835 17.672 6.65949C17.3998 7.03063 16.8783 7.11086 16.5072 6.83869L12.8333 4.14452V13.5C12.8333 13.9603 12.4602 14.3334 12 14.3334C11.5398 14.3334 11.1667 13.9603 11.1667 13.5V4.14452L7.4928 6.83869C7.12167 7.11086 6.60016 7.03063 6.328 6.65949C6.05583 6.28835 6.13606 5.76685 6.5072 5.49468L11.4999 1.83333C11.6392 1.72869 11.8124 1.66669 12 1.66669ZM4.16667 13.5C4.16667 13.0398 3.79357 12.6667 3.33333 12.6667C2.8731 12.6667 2.5 13.0398 2.5 13.5V17.3334C2.5 19.3584 4.14162 21 6.16667 21H17.8333C19.8584 21 21.5 19.3584 21.5 17.3334V13.5C21.5 13.0398 21.1269 12.6667 20.6667 12.6667C20.2064 12.6667 19.8333 13.0398 19.8333 13.5V17.3334C19.8333 18.4379 18.9379 19.3334 17.8333 19.3334H6.16667C5.0621 19.3334 4.16667 18.4379 4.16667 17.3334V13.5Z" fill="white"/>
</svg>
