<svg width="8" height="8" viewBox="0 0 8 8" fill="none" xmlns="http://www.w3.org/2000/svg">
<path d="M0.139534 3.1134C0.139534 1.49575 1.45571 0.179573 3.07336 0.179573C4.691 0.179573 6.00718 1.49575 6.00718 3.1134C6.00718 3.78251 5.78292 4.39648 5.40424 4.88913L7.20203 6.69795C7.27924 6.77516 7.32336 6.88178 7.32336 6.99943C7.32336 7.24575 7.15056 7.43325 6.90056 7.43325C6.78292 7.43325 6.67262 7.39281 6.58806 7.30825L4.77924 5.49575C4.29762 5.84134 3.71306 6.04722 3.07336 6.04722C1.45571 6.04722 0.139534 4.73104 0.139534 3.1134ZM0.76821 3.1134C0.76821 4.38545 1.8013 5.41854 3.07336 5.41854C4.34542 5.41854 5.3785 4.38545 5.3785 3.1134C5.3785 1.84134 4.34542 0.808249 3.07336 0.808249C1.8013 0.808249 0.76821 1.84134 0.76821 3.1134Z" fill="white"/>
</svg>
