<svg width="24" height="24" viewBox="0 0 24 24" fill="none" xmlns="http://www.w3.org/2000/svg">
<path fill-rule="evenodd" clip-rule="evenodd" d="M5.83268 4C3.80764 4 2.16602 5.64162 2.16602 7.66666V16.3333C2.16602 18.3584 3.80764 20 5.83268 20H18.166C20.1911 20 21.8327 18.3584 21.8327 16.3333V7.66667C21.8327 5.64162 20.1911 4 18.166 4H5.83268ZM3.92331 7.06964C4.17725 6.25668 4.93606 5.66667 5.83268 5.66667H18.166C19.0626 5.66667 19.8215 6.25668 20.0754 7.06964L13.1172 12.4221C12.4582 12.929 11.5405 12.929 10.8815 12.4221L3.92331 7.06964ZM3.83268 9.10264V16.3333C3.83268 17.4379 4.72811 18.3333 5.83268 18.3333H18.166C19.2706 18.3333 20.166 17.4379 20.166 16.3333V9.10264L14.1333 13.7432C12.8753 14.7109 11.1234 14.7109 9.86536 13.7432L3.83268 9.10264Z" fill="white"/>
</svg>
