<svg width="26" height="21" viewBox="0 0 26 21" fill="none" xmlns="http://www.w3.org/2000/svg">
<path d="M8.41113 20.3875H17.5889C19.1426 20.3875 20.1182 19.4209 20.1453 17.8762L20.2627 9.05981L22.4216 9.55664C23.2888 9.75537 23.8489 9.39404 24.0747 8.49976L24.8696 5.29297C25.0955 4.40771 24.7522 3.79346 23.9211 3.44116L17.634 0.758301C17.1643 0.550537 16.8481 0.568604 16.4597 0.749268C15.2854 1.30933 14.3279 1.59839 13 1.59839C11.6631 1.59839 10.7146 1.30933 9.53125 0.749268C9.15186 0.568604 8.82666 0.550537 8.35693 0.758301L2.07886 3.44116C1.23877 3.79346 0.904541 4.40771 1.12134 5.29297L1.92529 8.49976C2.14209 9.39404 2.70215 9.75537 3.57837 9.55664L5.7373 9.05981L5.85474 17.8762C5.8728 19.4209 6.84839 20.3875 8.41113 20.3875ZM8.4292 18.9963C7.69751 18.9963 7.25488 18.5447 7.24585 17.804L7.11938 7.73193C7.11938 7.51514 6.94775 7.36157 6.70386 7.41577L3.54224 8.12036C3.37061 8.15649 3.25317 8.08423 3.21704 7.9397L2.50342 5.09424C2.44922 4.86841 2.51245 4.78711 2.69312 4.71484L8.6189 2.17651C9.07959 4.19092 10.9224 5.61816 13 5.61816C15.0686 5.61816 16.9114 4.19092 17.3811 2.17651L23.3069 4.71484C23.4785 4.78711 23.5508 4.86841 23.4966 5.09424L22.7739 7.9397C22.7378 8.08423 22.6294 8.15649 22.4578 8.12036L19.2961 7.41577C19.0432 7.36157 18.8806 7.51514 18.8806 7.73193L18.7542 17.804C18.7451 18.5447 18.3025 18.9963 17.5708 18.9963H8.4292ZM13 2.9082C14.0388 2.9082 14.9421 2.73657 15.8274 2.39331C15.3215 3.48633 14.2195 4.22705 13 4.22705C11.7715 4.22705 10.6785 3.48633 10.1726 2.39331C11.0579 2.73657 11.9612 2.9082 13 2.9082Z" fill="white"/>
</svg>
