<svg width="18" height="18" viewBox="0 0 18 18" fill="none" xmlns="http://www.w3.org/2000/svg">
<path d="M6.84661 17.6508C7.28753 17.6508 7.63616 17.4559 7.88226 17.0765L17.5722 1.81873C17.7568 1.52136 17.8285 1.29578 17.8285 1.05994C17.8285 0.495972 17.4594 0.126831 16.8954 0.126831C16.4853 0.126831 16.2597 0.260132 16.0136 0.64978L6.8056 15.3231L2.02728 9.06824C1.77093 8.70935 1.51458 8.5658 1.14544 8.5658C0.560966 8.5658 0.161064 8.9657 0.161064 9.52966C0.161064 9.7655 0.263603 10.0321 0.458427 10.2782L5.7802 17.056C6.08782 17.4559 6.40569 17.6508 6.84661 17.6508Z" fill="white"/>
</svg>
