<svg width="24" height="24" viewBox="0 0 24 24" fill="none" xmlns="http://www.w3.org/2000/svg">
<path fill-rule="evenodd" clip-rule="evenodd" d="M3.06078 9.23812C3.04896 9.22558 3.03753 9.21268 3.0265 9.19943C2.989 9.15439 2.95697 9.10635 2.93043 9.05617C2.86938 8.94092 2.83458 8.80963 2.83399 8.67027C2.83399 8.66907 2.83398 8.66787 2.83398 8.66667C2.83398 8.66506 2.83399 8.66344 2.834 8.66183C2.83515 8.45984 2.90816 8.27488 3.02876 8.13121C3.03903 8.11897 3.04964 8.10704 3.06059 8.09542L8.05937 2.76338C8.37415 2.42762 8.90151 2.41061 9.23727 2.72539C9.57303 3.04016 9.59004 3.56753 9.27527 3.90329L5.59084 7.83334H11.5007C14.221 7.83334 16.3147 8.53607 17.7391 9.79151C19.1737 11.056 19.8338 12.7978 19.8338 14.6667C19.8338 16.9658 18.5003 19.1676 16.8454 21.4844C16.5779 21.8589 16.0575 21.9456 15.683 21.6781C15.3084 21.4106 15.2217 20.8902 15.4892 20.5156C17.1677 18.1657 18.1672 16.3675 18.1672 14.6667C18.1672 13.2022 17.6607 11.944 16.6371 11.0418C15.6032 10.1306 13.947 9.5 11.5007 9.5H5.59085L9.27527 13.4301C9.59004 13.7658 9.57303 14.2932 9.23727 14.608C8.90151 14.9227 8.37415 14.9057 8.05937 14.57L3.06078 9.23812Z" fill="white"/>
</svg>
